HIERARCHY
ROOT simHips
{
  OFFSET 54.1894 98.8072 277.207
  CHANNELS 6 Xposition Yposition Zposition Zrotation Xrotation Yrotation
  JOINT simSpine
  {
    OFFSET -0.000357326 21.3001 -0.0169156
    CHANNELS 3 Zrotation Xrotation Yrotation
    JOINT simLeftArm
    {
      OFFSET 13.5181 21.3012 -1.8203e-05
      CHANNELS 3 Zrotation Xrotation Yrotation
      JOINT simLeftForeArm
      {
        OFFSET 24.5783 -1.80796e-05 0
        CHANNELS 3 Zrotation Xrotation Yrotation
        JOINT simLeftHand
        {
          OFFSET 24.5783 0 0
          CHANNELS 3 Zrotation Xrotation Yrotation
          End Site
          {
            OFFSET 7.32568 1.52588e-05 0.0169305
          }
        }
      }
    }
    JOINT simHead
    {
      OFFSET 0 27.4458 -0.00490489
      CHANNELS 3 Zrotation Xrotation Yrotation
      End Site
      {
        OFFSET 0 0 0
      }
    }
    JOINT simRightArm
    {
      OFFSET -13.5174 21.3012 0
      CHANNELS 3 Zrotation Xrotation Yrotation
      JOINT simRightForeArm
      {
        OFFSET -24.5783 -2.24236e-05 0
        CHANNELS 3 Zrotation Xrotation Yrotation
        JOINT simRightHand
        {
          OFFSET -24.5783 1.22225e-05 0
          CHANNELS 3 Zrotation Xrotation Yrotation
          End Site
          {
            OFFSET -7.32568 1.52588e-05 0.0169305
          }
        }
      }
    }
  }
  JOINT simRightUpLeg
  {
    OFFSET -8.44614 -9.41038 0.835681
    CHANNELS 3 Zrotation Xrotation Yrotation
    JOINT simRightLeg
    {
      OFFSET -8.62621e-05 -40.9639 0.00178026
      CHANNELS 3 Zrotation Xrotation Yrotation
      JOINT simRightFoot
      {
        OFFSET 0 -40.9639 0
        CHANNELS 3 Zrotation Xrotation Yrotation
        End Site
        {
          OFFSET 0.50614 -9.67405 14.6709
        }
      }
    }
  }
  JOINT simLeftUpLeg
  {
    OFFSET 8.44614 -9.41038 0.835691
    CHANNELS 3 Zrotation Xrotation Yrotation
    JOINT simLeftLeg
    {
      OFFSET -0.000115524 -40.9639 -0.000363106
      CHANNELS 3 Zrotation Xrotation Yrotation
      JOINT simLeftFoot
      {
        OFFSET 1.10309e-05 -40.964 5.32319e-05
        CHANNELS 3 Zrotation Xrotation Yrotation
        End Site
        {
          OFFSET -0.50614 -9.67405 14.6709
        }
      }
    }
  }
}
MOTION
Frames:	28
Frame Time:	0.0333333
1.22946 95.3681 -179.376 -2.49709 3.10399 3.23612 0.242105 -2.83178 3.56605 -80.1003 23.9484 -6.8583 12.009 -1.92008 -20.0523 0.403562 -3.82556 0.455836 8.07639 -3.97806 -6.37288 85.9031 15.124 -2.74793 -11.6178 -2.2935 19.986 0.383764 -2.98249 -0.282379 -0.306916 -9.27118 -2.56004 1.56317 29.7361 -1.87229 3.69327 -2.78325 -19.9471 3.75834 -14.7329 -2.00899 -2.53242 36.0762 2.17959 -5.22134 -1.35176 15.756 
1.17914 95.3637 -179.385 -2.55346 2.99471 3.42934 0.0132164 -2.17769 4.1327 -79.2402 24.2683 -7.9197 12.099 -1.95208 -20.1798 0.550457 -5.47797 0.520236 7.92984 -4.60929 -6.33388 85.9221 14.8037 -1.93766 -11.8098 -2.36296 20.2728 0.397213 -3.20758 -0.274309 -0.227919 -9.48668 -2.67864 1.54909 30.0486 -1.88878 3.68404 -2.7996 -20.0069 3.81134 -14.6828 -2.16474 -2.5355 36.1415 2.1814 -5.21647 -1.33892 15.7121 
1.14623 95.3708 -179.395 -2.52571 2.99576 3.68123 -1.02998 -2.19543 6.17455 -77.5923 26.3972 -8.96388 12.1213 -1.96156 -20.2312 0.620323 -6.31209 0.554015 9.47584 -5.11106 -10.2316 86.9175 12.7602 -1.89531 -12.0252 -2.4503 20.5919 0.419223 -3.5746 -0.261068 -0.294533 -9.56372 -2.94265 1.54365 30.1302 -1.89848 3.69114 -2.78462 -19.9767 3.68882 -14.7171 -2.55097 -2.53596 36.1106 2.1838 -5.27829 -1.21921 15.7998 
1.08629 95.362 -179.387 -2.52682 2.82402 3.73928 -1.81696 -2.05832 7.7604 -76.2123 28.2838 -9.70568 12.2578 -2.00251 -20.454 0.643204 -6.66558 0.568421 10.6399 -5.50259 -13.0246 87.7076 11.2495 -1.66813 -12.2081 -2.52412 20.8614 0.446305 -4.02474 -0.244697 -0.243257 -9.2532 -2.93911 1.55167 30.0227 -1.90088 3.67615 -2.81896 -20.0222 3.76444 -14.5578 -2.50752 -2.5405 36.145 2.18968 -5.24663 -1.21381 15.674 
1.0283 95.3535 -179.386 -2.61938 2.59451 3.73294 -1.26883 -1.91971 6.45461 -76.7171 27.8021 -8.89983 12.6293 -2.12113 -21.0322 0.667303 -7.05912 0.586062 10.2359 -4.98599 -10.8731 87.2317 12.3822 -1.1339 -12.1061 -2.48253 20.7204 0.433816 -3.81718 -0.252277 -0.0695705 -8.97237 -2.85902 1.55439 29.9627 -1.9033 3.66846 -2.8318 -20.076 3.95954 -14.3612 -2.38832 -2.54834 36.2489 2.19752 -5.20406 -1.25496 15.545 
1.02429 95.3432 -179.351 -2.6987 2.53943 3.82125 -1.18883 -1.55133 5.96448 -76.5224 28.2641 -8.82971 12.9603 -2.22711 -21.5366 0.707998 -7.6498 0.615558 10.5959 -5.42934 -10.8681 86.9999 12.7203 -0.170205 -11.9741 -2.43358 20.5277 0.413645 -3.54415 -0.262342 0.00663315 -8.84795 -2.92326 1.55418 29.8869 -1.90511 3.65459 -2.86831 -20.0857 4.03877 -14.3359 -2.44526 -2.55369 36.3206 2.2028 -5.17964 -1.32922 15.5366 
1.00336 95.3057 -179.319 -2.72728 2.28172 3.95482 -1.2385 -1.23373 5.33474 -76.677 28.5492 -8.07232 13.335 -2.358 -22.1366 0.735842 -8.01244 0.638248 11.0396 -5.44839 -10.7554 86.9212 12.9987 0.631462 -11.7779 -2.35851 20.2248 0.377628 -3.0587 -0.280315 0.0993631 -8.52332 -2.88083 1.55622 29.8924 -1.9079 3.59312 -3.02531 -20.2116 4.11445 -14.0963 -2.44515 -2.56258 36.3994 2.21367 -5.11445 -1.466 15.4767 
0.971484 95.2976 -179.311 -2.76978 2.145 3.97802 -1.2212 -0.965794 4.70381 -77.0883 28.8758 -6.97258 13.8232 -2.5348 -22.9293 0.782114 -8.60268 0.669597 11.2136 -5.64107 -10.6058 86.9811 12.9636 1.34488 -11.6505 -2.31166 20.0252 0.331166 -2.36592 -0.305692 0.188924 -8.40529 -2.8313 1.5586 29.9303 -1.91049 3.61604 -2.98535 -20.2987 4.18328 -13.9795 -2.45889 -2.56689 36.4431 2.21863 -5.1037 -1.5012 15.478 
0.978724 95.2998 -179.274 -2.70692 2.18897 3.99781 -1.3093 -0.971991 4.28732 -77.4289 29.9723 -5.85272 14.2406 -2.68989 -23.6117 0.850284 -9.51264 0.714701 11.4337 -6.00711 -10.5455 87.362 12.605 1.55894 -11.7512 -2.35264 20.1904 0.324901 -2.22239 -0.315775 0.0887052 -8.48289 -2.89064 1.56253 30.0341 -1.91314 3.63129 -2.9571 -20.2609 4.06735 -13.9809 -2.56838 -2.56509 36.3892 2.21842 -5.1385 -1.47048 15.5866 
1.01547 95.3036 -179.215 -2.72395 2.20109 4.02593 -0.829023 -1.00495 3.01896 -78.3474 30.7645 -4.36281 14.638 -2.83699 -24.2427 0.902633 -10.3162 0.757514 11.2234 -5.90549 -9.17526 87.464 13.2546 1.44454 -11.9723 -2.43481 20.5714 0.356514 -2.69783 -0.307156 0.0616597 -8.46867 -2.97994 1.56201 30.043 -1.913 3.6154 -2.97556 -20.1838 4.04912 -13.9531 -2.61961 -2.56465 36.3743 2.21847 -5.14689 -1.47313 15.6227 
1.07826 95.3042 -179.14 -2.75466 2.19159 3.8885 -0.617437 -1.02648 2.87845 -78.6355 32.4658 -3.54652 14.7335 -2.86218 -24.3742 0.882029 -10.2783 0.759843 11.4227 -5.96881 -9.09645 87.9268 13.4021 0.946535 -12.2694 -2.54695 21.0657 0.41156 -3.57616 -0.281101 0.0364878 -8.39998 -3.0211 1.55876 29.9904 -1.91137 3.62066 -2.9215 -20.035 4.04578 -13.8534 -2.58262 -2.56437 36.3701 2.21821 -5.14959 -1.52322 15.7032 
1.15622 95.303 -179.095 -2.72419 2.26997 3.64025 0.0454249 -1.09575 1.75558 -79.5866 32.6464 -2.61161 14.6585 -2.82394 -24.2221 0.822853 -9.67809 0.731797 10.9846 -5.66368 -7.2237 87.8063 14.9417 0.473317 -12.3472 -2.57247 21.2364 0.431645 -3.88855 -0.270295 -0.0638288 -8.47793 -2.9641 1.55751 29.9881 -1.91108 3.65418 -2.82514 -19.92 3.98163 -13.8282 -2.47408 -2.56252 36.3379 2.21679 -5.15204 -1.54334 15.7452 
1.24118 95.3039 -179.068 -2.73824 2.35094 3.46437 -0.691287 -1.19744 4.1395 -78.535 35.3157 -3.06839 14.2221 -2.64588 -23.4998 0.712928 -8.30393 0.649263 12.3013 -5.73506 -10.7936 89.1148 13.4864 -0.50836 -12.4978 -2.6327 21.4675 0.435728 -3.96241 -0.267817 -0.0621515 -8.56083 -2.81076 1.55661 29.9872 -1.91149 3.67675 -2.78459 -19.9665 4.03569 -13.8575 -2.17412 -2.56246 36.3444 2.21634 -5.08836 -1.56904 15.5391 
1.33171 95.3054 -179.065 -2.75517 2.41633 3.39248 -0.357292 -1.24088 3.90457 -79.1593 34.5282 -2.66471 13.8787 -2.51464 -22.9292 0.632345 -7.25637 0.597012 12.0753 -5.37796 -10.0289 89.3142 14.0717 -1.13201 -12.3167 -2.56078 21.211 0.384106 -3.18273 -0.296129 -0.0576543 -8.64099 -2.67399 1.55535 30.0003 -1.91023 3.69367 -2.77858 -20.0794 4.11933 -13.9302 -1.82133 -2.56258 36.3534 2.21608 -5.00397 -1.58244 15.2274 
1.44007 95.32 -179.054 -2.70366 2.48447 3.3008 -0.115487 -1.11983 3.77761 -79.577 33.2577 -2.69111 13.4625 -2.36416 -22.2468 0.598884 -6.80918 0.577392 11.8331 -5.34026 -9.67166 89.4405 14.2431 -1.59034 -11.9876 -2.44058 20.7246 0.316968 -2.1792 -0.331394 -0.207016 -8.70971 -2.72968 1.55391 30.0149 -1.90823 3.69543 -2.75629 -19.9524 4.02109 -13.9325 -1.72144 -2.56286 36.2805 2.21385 -4.994 -1.57997 15.2027 
1.53041 95.3346 -179.057 -2.76447 2.53686 3.09657 0.160349 -1.08567 4.00133 -80.014 31.9896 -2.55138 13.1369 -2.25414 -21.7242 0.569588 -6.41006 0.561203 11.4656 -5.65364 -9.52557 89.6472 13.7255 -2.09282 -11.5918 -2.30442 20.1263 0.246758 -1.05965 -0.36926 -0.183745 -8.75912 -2.59251 1.54937 29.9488 -1.90419 3.71591 -2.68731 -19.9036 4.03193 -13.93 -1.66087 -2.56436 36.2443 2.21305 -5.02871 -1.59836 15.3465 
1.63842 95.3262 -179.056 -2.75701 2.67887 3.00132 -0.423244 -0.991832 5.98125 -79.1431 32.7412 -3.28801 12.8478 -2.15546 -21.2594 0.554043 -6.19072 0.55299 12.145 -6.56632 -12.5409 90.5544 11.4633 -2.67208 -11.4417 -2.2622 19.8868 0.21736 -0.501619 -0.384036 -0.281226 -8.96857 -2.57412 1.55008 30.0176 -1.90256 3.7237 -2.65716 -19.8177 3.98267 -14.0529 -1.5229 -2.56466 36.2119 2.21252 -5.01894 -1.60801 15.3249 
1.73422 95.3122 -179.037 -2.75688 2.82164 2.89295 -2.47831 -0.935989 11.0921 -75.9509 36.8895 -5.41517 12.6591 -2.08621 -20.9703 0.560788 -6.26706 0.559005 14.5621 -8.25182 -20.2984 92.8039 6.5581 -3.20273 -11.6077 -2.33296 20.0616 0.245069 -0.822126 -0.364636 -0.366879 -9.07879 -2.56191 1.55779 30.0014 -1.89944 3.71089 -2.66906 -19.7161 3.96483 -14.1725 -1.3326 -2.56559 36.2036 2.21273 -4.98215 -1.65453 15.2544 
1.8197 95.3135 -179.051 -2.81957 2.91943 2.94014 -2.21408 -0.763969 10.8405 -76.284 36.6447 -5.01368 12.9333 -2.17889 -21.4 0.602969 -6.80628 0.591885 14.379 -8.56052 -20.0439 92.7978 5.83869 -3.428 -11.3533 -2.24506 19.6897 0.186975 0.0188359 -0.389949 -0.362274 -8.93795 -2.60253 1.56044 29.7243 -1.8918 3.73055 -2.62198 -19.7265 3.97729 -14.3095 -1.31058 -2.56732 36.2215 2.21367 -4.96888 -1.65999 15.2039 
1.88804 95.3244 -179.065 -2.82624 3.01606 3.028 -1.26594 -0.776875 8.65323 -78.0818 34.6442 -3.32407 13.378 -2.33649 -22.1137 0.651032 -7.43063 0.62046 13.2045 -8.12159 -16.4028 92.0077 6.98279 -3.85158 -11.0259 -2.13128 19.2192 0.131596 0.866313 -0.415785 -0.412075 -9.26716 -2.68992 1.54624 29.9346 -1.89428 3.76179 -2.56399 -19.7545 3.96939 -14.4366 -1.20909 -2.5672 36.2099 2.21364 -4.94735 -1.6167 15.0615 
1.94376 95.3438 -179.072 -2.89791 3.18569 2.96235 -2.70188 -0.818364 11.9392 -75.7401 37.8771 -4.58739 13.4901 -2.3696 -22.3062 0.702479 -8.09499 0.652734 14.8612 -9.44035 -20.9195 93.504 3.88026 -4.09706 -11.1737 -2.18592 19.3565 0.163366 0.40842 -0.399486 -0.377197 -9.32663 -2.67007 1.54954 29.749 -1.88951 3.79746 -2.47023 -19.7295 4.02932 -14.6222 -1.09603 -2.56729 36.2101 2.21372 -4.9579 -1.5839 15.0456 
2.03024 95.3465 -179.069 -2.85824 3.26846 2.93519 -2.97287 -0.937562 12.5943 -75.3287 38.7672 -4.5484 13.6428 -2.42258 -22.5523 0.727756 -8.45494 0.672547 15.2294 -9.65956 -21.7181 93.8006 2.71668 -4.34467 -11.0696 -2.15422 19.1784 0.146974 0.673545 -0.406208 -0.530014 -9.53161 -2.81719 1.54269 29.8749 -1.88965 3.80922 -2.4122 -19.5691 3.9069 -14.6704 -1.12899 -2.56534 36.1743 2.21247 -4.97175 -1.59081 15.12 
2.11905 95.344 -179.093 -2.93856 3.25841 3.00993 -1.89222 -0.763606 12.5719 -76.0103 40.1347 -3.90546 14.1185 -2.56835 -23.1479 0.832834 -9.93405 0.742437 14.4734 -9.56668 -22.5535 93.2141 0.994311 -4.48062 -10.9315 -2.13179 19.1719 0.0466841 2.05659 -0.479675 -0.511905 -9.41846 -2.89795 1.54419 29.7351 -1.88219 3.78788 -2.43085 -19.534 3.93737 -14.7166 -1.13594 -2.56712 36.2272 2.21288 -4.96033 -1.61763 15.0796 
2.19641 95.3471 -179.13 -3.13759 3.16621 2.97996 0.0103656 -0.434661 12.1856 -77.6498 41.3861 -2.49017 14.8759 -2.81177 -24.092 0.975882 -11.9047 0.837834 13.0317 -9.42787 -23.2326 92.0967 -0.672111 -4.67543 -10.8583 -2.13783 19.4425 -0.0882745 3.81643 -0.583119 -0.287619 -9.42675 -2.75449 1.52592 29.7271 -1.87757 3.81106 -2.35207 -19.6468 4.13569 -14.7108 -1.05739 -2.56503 36.3577 2.20255 -4.94822 -1.68298 15.0424 
2.25803 95.3498 -179.144 -3.16838 3.1793 2.88333 0.285647 -0.528433 11.6783 -78.2664 40.1394 -1.91924 14.8201 -2.79621 -24.0227 0.944342 -11.5251 0.819648 12.8635 -9.04377 -22.0203 91.8672 -0.300534 -4.69329 -10.818 -2.12111 19.3506 -0.0888282 3.82571 -0.577531 -0.26852 -9.53072 -2.62862 1.51865 29.7738 -1.87626 3.83899 -2.29623 -19.6796 4.15544 -14.7262 -0.956336 -2.56138 36.3709 2.1954 -4.93746 -1.71233 15.038 
2.3152 95.3511 -179.178 -3.17786 3.17727 2.93028 0.311749 -0.51658 11.8556 -78.1128 40.1511 -1.98731 14.7275 -2.75774 -23.8571 0.936212 -11.4279 0.815244 12.9274 -8.89952 -22.2205 91.9348 -0.386732 -4.68684 -10.9665 -2.17112 19.599 -0.0712217 3.54957 -0.571049 -0.278424 -9.51649 -2.61588 1.51605 29.753 -1.87422 3.86785 -2.25471 -19.7555 4.2005 -14.7692 -0.773552 -2.56069 36.3847 2.19312 -4.88715 -1.68725 14.8113 
2.40221 95.3446 -179.15 -2.98214 3.12772 2.92931 0.235717 -0.681559 11.661 -78.3438 39.7196 -1.66305 14.6215 -2.71947 -23.6979 0.910976 -11.1115 0.800215 12.8581 -8.55547 -21.6758 91.909 0.284413 -4.8534 -11.1513 -2.23017 19.8839 -0.0361583 2.96333 -0.556536 -0.612937 -9.37934 -2.80555 1.51466 29.7698 -1.87334 3.84844 -2.28766 -19.5737 3.94885 -14.6099 -0.700497 -2.56721 36.2657 2.18873 -4.84945 -1.69885 14.74 
2.47886 95.3439 -179.156 -2.86504 3.14995 2.86763 0.145132 -0.723026 11.4862 -78.2848 39.3618 -1.71146 14.5018 -2.67562 -23.516 0.889794 -10.8405 0.787439 13.0995 -8.45476 -21.9805 91.9531 1.03931 -4.68699 -11.3433 -2.29396 20.1875 -0.00597725 2.46418 -0.542963 -0.824261 -9.39364 -2.84825 1.51379 29.8032 -1.87318 3.82267 -2.34058 -19.4589 3.78171 -14.5764 -0.631765 -2.57196 36.1837 2.18671 -4.83565 -1.69831 14.7199 
